<svg width="48" height="48" viewBox="0 0 48 48" fill="none" xmlns="http://www.w3.org/2000/svg">
<path d="M24 4H17C15.1435 4 13.363 4.7375 12.0503 6.05025C10.7375 7.36301 10 9.14348 10 11C10 12.8565 10.7375 14.637 12.0503 15.9497C13.363 17.2625 15.1435 18 17 18M24 4V18M24 4H31C31.9193 4 32.8295 4.18106 33.6788 4.53284C34.5281 4.88463 35.2997 5.40024 35.9497 6.05025C36.5998 6.70026 37.1154 7.47194 37.4672 8.32122C37.8189 9.17049 38 10.0807 38 11C38 11.9193 37.8189 12.8295 37.4672 13.6788C37.1154 14.5281 36.5998 15.2997 35.9497 15.9497C35.2997 16.5998 34.5281 17.1154 33.6788 17.4672C32.8295 17.8189 31.9193 18 31 18M24 18H17M24 18H31M24 18V32M17 18C15.1435 18 13.363 18.7375 12.0503 20.0503C10.7375 21.363 10 23.1435 10 25C10 26.8565 10.7375 28.637 12.0503 29.9497C13.363 31.2625 15.1435 32 17 32M31 18C30.0807 18 29.1705 18.1811 28.3212 18.5328C27.4719 18.8846 26.7003 19.4002 26.0503 20.0503C25.4002 20.7003 24.8846 21.4719 24.5328 22.3212C24.1811 23.1705 24 24.0807 24 25C24 25.9193 24.1811 26.8295 24.5328 27.6788C24.8846 28.5281 25.4002 29.2997 26.0503 29.9497C26.7003 30.5998 27.4719 31.1154 28.3212 31.4672C29.1705 31.8189 30.0807 32 31 32C31.9193 32 32.8295 31.8189 33.6788 31.4672C34.5281 31.1154 35.2997 30.5998 35.9497 29.9497C36.5998 29.2997 37.1154 28.5281 37.4672 27.6788C37.8189 26.8295 38 25.9193 38 25C38 24.0807 37.8189 23.1705 37.4672 22.3212C37.1154 21.4719 36.5998 20.7003 35.9497 20.0503C35.2997 19.4002 34.5281 18.8846 33.6788 18.5328C32.8295 18.1811 31.9193 18 31 18ZM17 32C15.1435 32 13.363 32.7375 12.0503 34.0503C10.7375 35.363 10 37.1435 10 39C10 40.8565 10.7375 42.637 12.0503 43.9497C13.363 45.2625 15.1435 46 17 46C18.8565 46 20.637 45.2625 21.9497 43.9497C23.2625 42.637 24 40.8565 24 39V32M17 32H24" stroke="#1E1E1E" stroke-width="4" stroke-linecap="round" stroke-linejoin="round"/>
</svg>
